<?xml version="1.0" encoding="utf-8"?>
<!-- Generator: Adobe Illustrator 19.1.0, SVG Export Plug-In . SVG Version: 6.00 Build 0)  -->
<svg version="1.1" id="Layer_1" xmlns="http://www.w3.org/2000/svg" xmlns:xlink="http://www.w3.org/1999/xlink" x="0px" y="0px"
	 viewBox="197 -101 1006 994" style="enable-background:new 197 -101 1006 994;" xml:space="preserve">
<style type="text/css">
	.st0{fill:#01B198;}
	.st1{fill:#3D4C55;}
	.st2{fill:#03AFD1;}
</style>
<path class="st0" d="M775.1-83.9c0.8-2,3.2-1.2,4.9-1.4c89.7,0.1,179.4,0,269.2,0c45.3,78.1,90.4,156.3,135.6,234.5
	c0.5,1,1.5,2.1,0.6,3.2c-43.8,76.2-88.1,152.1-131.8,228.3c-2.4-39.2-12.4-78-30.4-112.9C992,206.3,937.4,157,872.9,132.4
	c-37.2-14.4-77.5-20.7-117.4-18.4c-38.9,2-77.4,12.4-112.1,30C687.2,68,731.3-7.9,775.1-83.9z"/>
<path class="st0" d="M650.8,158.1c38.3-19.3,81.3-29.3,124.2-28.5c42.9,0.5,85.7,11.6,123.4,32.1c31,16.8,58.6,39.8,80.7,67.3
	c34.8,43,55.8,97,58.5,152.2c-31.8-17.9-63.3-36.4-95-54.6C845.4,270.3,748,214.4,650.8,158.1z"/>
<path class="st1" d="M351.9,159.4c88.4,0,176.8-0.1,265.1,0c-42.5,27.3-77.2,66.7-99.5,112c-21.2,42.7-31,90.9-28.5,138.5
	c1.9,40.3,12.6,80.1,31.3,115.9c22.3,43.1,56,80.2,96.7,106.7c-88.4,0.1-176.8,0.1-265.1,0c-45.5-78.9-91.1-157.7-136.7-236.6
	C260.7,317.1,306.4,238.3,351.9,159.4z"/>
<path class="st1" d="M524.5,294.4c20.4-49.4,55.9-92.5,100.8-121.5c0.1,148.7,0.1,297.4,0,446.1c-32.4-20.9-59.9-49.3-80.4-81.9
	c-22.5-35.8-36.2-77.1-39.5-119.2C501.9,376,508.5,333.3,524.5,294.4z"/>
<path class="st0" d="M655.3,179C760,239.5,864.9,299.9,969.6,360.4c15.9,9,31.5,18.6,47.6,27.2c-7.4,1-14.9,0.5-22.3,0.3
	c-13.3,0.4-26.6-0.3-39.9,0.3c-6.3-0.6-12.7,0.4-19-0.2c-13,0.3-26.1-0.4-39.1,0.1c-8-0.6-15.9,0.6-23.9-0.1
	c-8.3,0.5-16.7-0.5-25,0.2c-23.7-0.1-47.4-0.1-71,0c-1.1-0.2-1.8-0.8-2.2-1.8c-39-67.6-78.1-135.2-117.1-202.8
	C656.8,181.9,656.1,180.5,655.3,179z"/>
<path class="st1" d="M641.4,186.8c39.8,69.4,80,138.4,119.9,207.7c0.6,1,0.6,2-0.1,3c-39.9,69.3-80.1,138.3-119.9,207.7
	c-0.3-51.1,0-102.2-0.1-153.2c0-59.3,0-118.7,0-178C641.3,244.9,641,215.9,641.4,186.8z"/>
<path class="st2" d="M774.8,405.8c0.5-1.2,1.7-2.2,3.1-1.9c78,0,156.1,0,234.1,0c1.7,0.1,3.4,0.3,5,0.6c-14.6,7.8-28.7,16.5-43,24.6
	C867.8,490.3,761.5,551.7,655.2,613C694.9,543.8,735,474.9,774.8,405.8z"/>
<path class="st2" d="M1029.4,415.3c2.7-1.6,5.3-3.2,8.1-4.5c-2.8,57.9-25.7,114.4-63.5,158.3c-18.8,21.9-41.2,40.9-66,55.7
	c-29.9,18-63.5,29.9-98,34.9c-54,8-110.4-1-159.1-25.8c31.9-18.9,64.2-37.1,96.3-55.8C841.3,523.9,935.3,469.6,1029.4,415.3z"/>
<path class="st2" d="M1053.6,411.6c43.9,75.4,87.3,151.1,131.1,226.5c0.8,1.2,1.6,2.8,0.5,4c-45.3,78.4-90.6,156.8-136,235.1
	c-91.1,0-182.2,0-273.3,0c-44.2-76.5-88.4-152.9-132.5-229.4c39.1,19.7,82.8,30.3,126.6,30.5c60.4,0.4,120.8-19.2,169.2-55.3
	c48.5-35.7,85.1-87.3,102.5-145C1048.4,456.5,1051.9,434.1,1053.6,411.6z"/>
</svg>
