<?xml version="1.0" encoding="utf-8"?>
<!-- Generator: Adobe Illustrator 19.1.0, SVG Export Plug-In . SVG Version: 6.00 Build 0)  -->
<svg version="1.1" id="Layer_1" xmlns="http://www.w3.org/2000/svg" xmlns:xlink="http://www.w3.org/1999/xlink" x="0px" y="0px"
	 viewBox="-55 147 500 500" style="enable-background:new -55 147 500 500;" xml:space="preserve">
<style type="text/css">
	.st0{fill:#FAB73B;}
	.st1{fill:#2EC9D7;}
	.st2{fill:#003550;}
</style>
<path class="st0" d="M-41,181.1c-0.4-5.4,4.6-10.5,10-10.1c3.2-0.1,5.8,1.9,7.9,4.1c14.2,14.7,28.5,29.3,42.6,44
	c-2-0.4-4.1-0.5-5.9,0.6c-4.5,2.7-7.8,7.4-8.6,12.7c-13.1-13.8-26.4-27.2-39.6-40.9C-37.4,188.6-41.1,185.6-41,181.1z"/>
<path class="st1" d="M13.6,219.8c1.8-1.2,3.9-1,5.9-0.6c6.3,4.5,13.7,7.1,21.2,9.2c4.9,1.6,10.4,2.2,14.5,5.5c3,2.6,5.6,5.7,8.3,8.7
	c12,13.8,23.1,28.4,32.7,44c29.6-28,66.8-48.8,107-56.3c24.6-4.3,51-3.8,74.1,6.5c25.2,11.1,45.2,32.4,56.8,57.3
	c11.9,25.4,15.2,54.6,9.3,82c-3.6,16.8-10.6,32.9-20.3,47.1c-6.4,9.4-14.1,17.9-22.1,26c-12.5,12.7-26.9,23.9-43.5,30.7
	c-23.4,9.5-49.4,11.5-74.3,8.2c-18.9-1.9-32.7-21.6-29.9-40C155,431,170,416.6,187,415.9c14.9-1.2,29.5,8.1,35.4,21.7
	c-10.9,0.4-21.8,0.8-32.6-1.3c0-2.4-0.2-5.3-2.7-6.5c-3.7-2.2-8.5,1.9-7.1,5.9c1,3.4,5,3.8,8,4.3c10.6,1.3,21.4,0.6,31.9-0.7
	c15.9-2.8,30.4-10.7,43.6-19.9c14.8-11.6,27.5-26.7,33.3-44.8c6.4-19.6,4.5-41.3-3.5-60.1c-4.1-8.7-9.2-17.1-16.3-23.7
	c-11.9-12.2-29.3-17.5-46.1-17.6c-14.4-0.3-28.4,3.9-41.7,9c-26.7,10.7-51.2,26.8-71.5,47c15.9,39.1,23.9,81.5,21.7,123.7
	c-1.8,33.9-10.4,67.7-26.6,97.7c-9.4,17.4-21.8,33.3-36.7,46.4c-13.6,11.9-29.3,22.3-47.1,26.4c-17.2,3.9-36.5,0.1-49.8-11.8
	c-9.5-8.1-15.1-19.8-18.5-31.7c-4.3-15.2-4.6-31.4-2.7-47c4.2-32,13.5-63.2,26.4-92.6C2.4,399.7,27,362.2,55.8,328.5
	c7.3,8.4,14.3,17,21.9,25.1c-5.1-12.4-10.7-24.6-16.8-36.4c-10.1-17.9-22.5-34.5-36.6-49.5c-4.1-4-6.4-9.4-8.7-14.5
	c-2.3-5.1-2.9-10.9-6.4-15.4c-1.3-1.8-3.2-3.3-4.1-5.4C5.9,227.2,9.1,222.4,13.6,219.8z"/>
<path class="st2" d="M31.9,447.7c13.9-28.4,31.2-54.9,51.1-79.4c5.7,18.8,9.7,38.1,10.7,57.7c1.1,19.1,0.3,38.4-4.1,57.1
	c-3.5,15.1-8,30.2-15.7,43.8c-6.3,11.8-14.1,23-24,32c-6.3,6.6-14,11.6-21.9,16.1c-5,2.6-11,5.7-16.7,3.7c-3.7-2.5-5.6-7-6.6-11.2
	c-2.9-9.5-2.5-19.7-1.4-29.5C8.2,506.7,17.8,476.1,31.9,447.7z"/>
<path class="st0" d="M415.8,420c1.3-5.4,8-8.4,12.9-5.8c3.9,1.8,6.1,6.5,5,10.6c-5,20-10.3,39.9-15.2,59.9
	c-2.7-6.5-11.5-8.9-17.6-6.5C405.8,458.8,410.7,439.3,415.8,420z"/>
<path class="st1" d="M400.9,478.2c6.2-2.4,14.9,0,17.6,6.5c-2.4,11-0.3,22.2,0.2,33.3c0.6,5.6-1.9,10.8-3.8,15.8
	c-10.7,26.7-31.2,49-56.3,62.9c-22,12-47.7,17.3-72.6,14.5c-20.9-2.2-41-10.6-57.2-23.9c-29.5-23.7-51.4-58.7-54.3-96.9
	c10.4,4.3,21.4,6.8,32.4,8.4c6.5,0.9,13.1,1.4,19.7,0.7c3.2,17.2,11.3,33.7,24,45.9c9.5,9.8,22.1,16.8,35.5,19.5
	c16.8,3.2,34.6-0.2,49.6-8.2c17.1-8.9,31.6-23.9,37.8-42.4c2.1-6.8,6.9-12.2,11.4-17.5c3.2-3.8,7.4-6.6,10.9-10.1
	C398.2,484.3,399.4,481.1,400.9,478.2z"/>
</svg>
